<svg width="760" height="340" viewBox="0 0 760 340" fill="none" xmlns="http://www.w3.org/2000/svg">
  <g fill="#D7E3F8">
    <circle cx="74" cy="94" r="5"/><circle cx="92" cy="86" r="5"/><circle cx="112" cy="82" r="5"/><circle cx="134" cy="88" r="5"/><circle cx="152" cy="102" r="5"/>
    <circle cx="66" cy="114" r="5"/><circle cx="86" cy="110" r="5"/><circle cx="108" cy="104" r="5"/><circle cx="128" cy="108" r="5"/><circle cx="146" cy="118" r="5"/><circle cx="164" cy="126" r="5"/>
    <circle cx="80" cy="132" r="5"/><circle cx="100" cy="130" r="5"/><circle cx="122" cy="128" r="5"/><circle cx="142" cy="136" r="5"/>
    <circle cx="150" cy="160" r="5"/><circle cx="162" cy="178" r="5"/><circle cx="170" cy="198" r="5"/><circle cx="178" cy="220" r="5"/><circle cx="184" cy="242" r="5"/>
    <circle cx="196" cy="266" r="5"/><circle cx="206" cy="286" r="5"/>
    <circle cx="294" cy="90" r="5"/><circle cx="312" cy="84" r="5"/><circle cx="330" cy="88" r="5"/><circle cx="348" cy="96" r="5"/>
    <circle cx="302" cy="110" r="5"/><circle cx="320" cy="108" r="5"/><circle cx="340" cy="110" r="5"/><circle cx="358" cy="120" r="5"/>
    <circle cx="316" cy="132" r="5"/><circle cx="334" cy="134" r="5"/><circle cx="352" cy="142" r="5"/>
    <circle cx="334" cy="156" r="5"/><circle cx="346" cy="176" r="5"/><circle cx="356" cy="198" r="5"/><circle cx="366" cy="220" r="5"/><circle cx="374" cy="242" r="5"/>
    <circle cx="384" cy="90" r="5"/><circle cx="404" cy="86" r="5"/><circle cx="424" cy="86" r="5"/><circle cx="446" cy="92" r="5"/><circle cx="468" cy="100" r="5"/><circle cx="490" cy="104" r="5"/>
    <circle cx="378" cy="112" r="5"/><circle cx="398" cy="110" r="5"/><circle cx="418" cy="110" r="5"/><circle cx="438" cy="116" r="5"/><circle cx="460" cy="122" r="5"/><circle cx="482" cy="126" r="5"/><circle cx="504" cy="124" r="5"/>
    <circle cx="392" cy="134" r="5"/><circle cx="414" cy="132" r="5"/><circle cx="436" cy="136" r="5"/><circle cx="458" cy="142" r="5"/><circle cx="482" cy="144" r="5"/><circle cx="506" cy="142" r="5"/><circle cx="528" cy="138" r="5"/>
    <circle cx="408" cy="156" r="5"/><circle cx="430" cy="156" r="5"/><circle cx="452" cy="162" r="5"/><circle cx="476" cy="164" r="5"/><circle cx="500" cy="162" r="5"/><circle cx="524" cy="156" r="5"/>
    <circle cx="448" cy="182" r="5"/><circle cx="470" cy="184" r="5"/><circle cx="494" cy="186" r="5"/><circle cx="518" cy="182" r="5"/>
    <circle cx="566" cy="232" r="5"/><circle cx="584" cy="226" r="5"/><circle cx="604" cy="228" r="5"/><circle cx="622" cy="236" r="5"/>
    <circle cx="576" cy="250" r="5"/><circle cx="596" cy="250" r="5"/><circle cx="614" cy="258" r="5"/>
  </g>
</svg>
