<svg width="1200" height="800" viewBox="0 0 1200 800" fill="none" xmlns="http://www.w3.org/2000/svg">
  <defs>
    <linearGradient id="g2" x1="120" y1="110" x2="1080" y2="690" gradientUnits="userSpaceOnUse">
      <stop stop-color="#081630"/>
      <stop offset="0.6" stop-color="#15386D"/>
      <stop offset="1" stop-color="#5A4BFF"/>
    </linearGradient>
    <radialGradient id="halo" cx="0" cy="0" r="1" gradientUnits="userSpaceOnUse" gradientTransform="translate(360 220) rotate(115) scale(520 360)">
      <stop stop-color="#FFD36E" stop-opacity="0.45"/>
      <stop offset="1" stop-color="#FFD36E" stop-opacity="0"/>
    </radialGradient>
  </defs>
  <rect x="90" y="90" width="1020" height="620" rx="44" fill="url(#g2)"/>
  <rect x="90" y="90" width="1020" height="620" rx="44" fill="url(#halo)"/>

  <rect x="150" y="160" width="900" height="460" rx="34" fill="rgba(255,255,255,0.10)" stroke="rgba(255,255,255,0.18)" stroke-width="2"/>
  <rect x="210" y="210" width="320" height="22" rx="11" fill="rgba(255,255,255,0.55)"/>
  <rect x="210" y="250" width="540" height="16" rx="8" fill="rgba(255,255,255,0.25)"/>
  <rect x="210" y="280" width="500" height="16" rx="8" fill="rgba(255,255,255,0.25)"/>

  <rect x="210" y="340" width="510" height="220" rx="28" fill="rgba(255,255,255,0.08)" stroke="rgba(255,255,255,0.14)" stroke-width="2"/>
  <path d="M260 520V420c0-10 8-18 18-18h18c10 0 18 8 18 18v100c0 10-8 18-18 18h-18c-10 0-18-8-18-18z" fill="rgba(255,255,255,0.28)"/>
  <path d="M350 520V380c0-10 8-18 18-18h18c10 0 18 8 18 18v140c0 10-8 18-18 18h-18c-10 0-18-8-18-18z" fill="rgba(255,255,255,0.40)"/>
  <path d="M440 520V450c0-10 8-18 18-18h18c10 0 18 8 18 18v70c0 10-8 18-18 18h-18c-10 0-18-8-18-18z" fill="rgba(255,255,255,0.22)"/>
  <path d="M530 520V405c0-10 8-18 18-18h18c10 0 18 8 18 18v115c0 10-8 18-18 18h-18c-10 0-18-8-18-18z" fill="rgba(255,255,255,0.34)"/>
  <path d="M260 380c90-70 180-55 320-10" stroke="rgba(255,211,110,0.95)" stroke-width="10" stroke-linecap="round"/>
  <circle cx="586" cy="373" r="10" fill="rgba(255,211,110,0.95)"/>

  <rect x="760" y="340" width="240" height="220" rx="28" fill="rgba(255,255,255,0.08)" stroke="rgba(255,255,255,0.14)" stroke-width="2"/>
  <circle cx="880" cy="448" r="68" fill="rgba(255,255,255,0.12)"/>
  <path d="M880 386a62 62 0 1 1 0 124a62 62 0 0 1 0-124z" stroke="rgba(255,255,255,0.24)" stroke-width="10"/>
  <path d="M880 386a62 62 0 0 1 58 40" stroke="rgba(255,211,110,0.95)" stroke-width="10" stroke-linecap="round"/>
  <rect x="820" y="570" width="120" height="16" rx="8" fill="rgba(255,255,255,0.32)"/>
</svg>

