<svg width="1200" height="800" viewBox="0 0 1200 800" fill="none" xmlns="http://www.w3.org/2000/svg">
  <defs>
    <linearGradient id="bg" x1="120" y1="110" x2="1080" y2="700" gradientUnits="userSpaceOnUse">
      <stop stop-color="#0B1B3A"/>
      <stop offset="0.55" stop-color="#15386D"/>
      <stop offset="1" stop-color="#6E5BFF"/>
    </linearGradient>
    <radialGradient id="glow" cx="0" cy="0" r="1" gradientUnits="userSpaceOnUse" gradientTransform="translate(820 210) rotate(135) scale(520 360)">
      <stop stop-color="#6EE7FF" stop-opacity="0.55"/>
      <stop offset="1" stop-color="#6EE7FF" stop-opacity="0"/>
    </radialGradient>
  </defs>
  <rect x="90" y="90" width="1020" height="620" rx="56" fill="url(#bg)"/>
  <rect x="90" y="90" width="1020" height="620" rx="56" fill="url(#glow)"/>
  <rect x="150" y="150" width="900" height="110" rx="34" fill="rgba(255,255,255,0.10)" stroke="rgba(255,255,255,0.18)" stroke-width="2"/>
  <rect x="210" y="192" width="280" height="20" rx="10" fill="rgba(255,255,255,0.55)"/>
  <rect x="520" y="192" width="140" height="20" rx="10" fill="rgba(255,255,255,0.22)"/>
  <rect x="680" y="192" width="150" height="20" rx="10" fill="rgba(255,255,255,0.22)"/>

  <rect x="150" y="290" width="520" height="420" rx="44" fill="rgba(255,255,255,0.10)" stroke="rgba(255,255,255,0.18)" stroke-width="2"/>
  <rect x="210" y="350" width="360" height="22" rx="11" fill="rgba(255,255,255,0.52)"/>
  <rect x="210" y="392" width="420" height="16" rx="8" fill="rgba(255,255,255,0.22)"/>
  <rect x="210" y="422" width="390" height="16" rx="8" fill="rgba(255,255,255,0.22)"/>
  <rect x="210" y="470" width="200" height="48" rx="24" fill="rgba(255,255,255,0.92)"/>
  <rect x="244" y="488" width="132" height="14" rx="7" fill="rgba(11,27,58,0.55)"/>

  <rect x="700" y="290" width="350" height="200" rx="44" fill="rgba(255,255,255,0.10)" stroke="rgba(255,255,255,0.18)" stroke-width="2"/>
  <circle cx="770" cy="390" r="44" fill="rgba(110,231,255,0.30)"/>
  <path d="M752 390l16 16 36-44" stroke="rgba(255,255,255,0.92)" stroke-width="10" stroke-linecap="round" stroke-linejoin="round"/>
  <rect x="830" y="360" width="160" height="18" rx="9" fill="rgba(255,255,255,0.50)"/>
  <rect x="830" y="394" width="200" height="14" rx="7" fill="rgba(255,255,255,0.22)"/>

  <rect x="700" y="520" width="350" height="190" rx="44" fill="rgba(255,255,255,0.10)" stroke="rgba(255,255,255,0.18)" stroke-width="2"/>
  <rect x="750" y="570" width="250" height="18" rx="9" fill="rgba(255,255,255,0.50)"/>
  <rect x="750" y="604" width="220" height="14" rx="7" fill="rgba(255,255,255,0.22)"/>
  <rect x="750" y="634" width="240" height="14" rx="7" fill="rgba(255,255,255,0.22)"/>
</svg>

