<svg width="1200" height="800" viewBox="0 0 1200 800" fill="none" xmlns="http://www.w3.org/2000/svg">
  <defs>
    <linearGradient id="bg3" x1="160" y1="160" x2="1040" y2="640" gradientUnits="userSpaceOnUse">
      <stop stop-color="#EEF3FA"/>
      <stop offset="0.55" stop-color="#DDE8FF"/>
      <stop offset="1" stop-color="#F8FAFF"/>
    </linearGradient>
    <radialGradient id="accent" cx="0" cy="0" r="1" gradientUnits="userSpaceOnUse" gradientTransform="translate(860 220) rotate(135) scale(420 320)">
      <stop stop-color="#2F6CD3" stop-opacity="0.18"/>
      <stop offset="1" stop-color="#2F6CD3" stop-opacity="0"/>
    </radialGradient>
  </defs>
  <rect x="120" y="120" width="960" height="560" rx="56" fill="url(#bg3)"/>
  <rect x="120" y="120" width="960" height="560" rx="56" fill="url(#accent)"/>
  <rect x="200" y="220" width="520" height="54" rx="20" fill="rgba(11,27,58,0.10)"/>
  <rect x="240" y="238" width="240" height="18" rx="9" fill="rgba(11,27,58,0.28)"/>
  <rect x="200" y="310" width="800" height="14" rx="7" fill="rgba(11,27,58,0.10)"/>
  <rect x="200" y="338" width="760" height="14" rx="7" fill="rgba(11,27,58,0.10)"/>
  <rect x="200" y="366" width="720" height="14" rx="7" fill="rgba(11,27,58,0.10)"/>

  <rect x="200" y="430" width="240" height="190" rx="28" fill="rgba(47,108,211,0.14)"/>
  <rect x="470" y="430" width="240" height="190" rx="28" fill="rgba(19,198,255,0.14)"/>
  <rect x="740" y="430" width="260" height="190" rx="28" fill="rgba(255,178,74,0.14)"/>
  <rect x="235" y="470" width="170" height="16" rx="8" fill="rgba(11,27,58,0.22)"/>
  <rect x="505" y="470" width="170" height="16" rx="8" fill="rgba(11,27,58,0.22)"/>
  <rect x="775" y="470" width="190" height="16" rx="8" fill="rgba(11,27,58,0.22)"/>
</svg>

