<svg width="1200" height="800" viewBox="0 0 1200 800" fill="none" xmlns="http://www.w3.org/2000/svg">
  <defs>
    <linearGradient id="g1" x1="70" y1="90" x2="1120" y2="730" gradientUnits="userSpaceOnUse">
      <stop stop-color="#0B1B3A"/>
      <stop offset="1" stop-color="#2F6CD3"/>
    </linearGradient>
    <radialGradient id="glow" cx="0" cy="0" r="1" gradientUnits="userSpaceOnUse" gradientTransform="translate(840 200) rotate(135) scale(420 320)">
      <stop stop-color="#6EE7FF" stop-opacity="0.55"/>
      <stop offset="1" stop-color="#6EE7FF" stop-opacity="0"/>
    </radialGradient>
  </defs>
  <rect x="70" y="90" width="1060" height="620" rx="44" fill="url(#g1)"/>
  <rect x="70" y="90" width="1060" height="620" rx="44" fill="url(#glow)"/>
  <rect x="130" y="160" width="940" height="78" rx="22" fill="rgba(255,255,255,0.14)"/>
  <rect x="160" y="185" width="240" height="20" rx="10" fill="rgba(255,255,255,0.58)"/>
  <rect x="430" y="185" width="170" height="20" rx="10" fill="rgba(255,255,255,0.28)"/>
  <rect x="620" y="185" width="140" height="20" rx="10" fill="rgba(255,255,255,0.28)"/>
  <rect x="785" y="185" width="170" height="20" rx="10" fill="rgba(255,255,255,0.28)"/>

  <rect x="130" y="270" width="540" height="360" rx="34" fill="rgba(255,255,255,0.10)" stroke="rgba(255,255,255,0.18)" stroke-width="2"/>
  <rect x="175" y="320" width="450" height="22" rx="11" fill="rgba(255,255,255,0.55)"/>
  <rect x="175" y="365" width="380" height="16" rx="8" fill="rgba(255,255,255,0.26)"/>
  <rect x="175" y="396" width="410" height="16" rx="8" fill="rgba(255,255,255,0.26)"/>
  <rect x="175" y="448" width="190" height="44" rx="22" fill="rgba(255,255,255,0.92)"/>
  <rect x="205" y="464" width="130" height="12" rx="6" fill="rgba(11,27,58,0.55)"/>

  <rect x="720" y="270" width="350" height="168" rx="34" fill="rgba(255,255,255,0.10)" stroke="rgba(255,255,255,0.18)" stroke-width="2"/>
  <rect x="762" y="315" width="266" height="18" rx="9" fill="rgba(255,255,255,0.50)"/>
  <rect x="762" y="350" width="220" height="14" rx="7" fill="rgba(255,255,255,0.25)"/>
  <rect x="762" y="382" width="246" height="14" rx="7" fill="rgba(255,255,255,0.25)"/>

  <rect x="720" y="462" width="350" height="168" rx="34" fill="rgba(255,255,255,0.10)" stroke="rgba(255,255,255,0.18)" stroke-width="2"/>
  <circle cx="790" cy="546" r="40" fill="rgba(110,231,255,0.35)"/>
  <path d="M780 546l14 14 30-36" stroke="rgba(255,255,255,0.92)" stroke-width="10" stroke-linecap="round" stroke-linejoin="round"/>
  <rect x="850" y="520" width="170" height="18" rx="9" fill="rgba(255,255,255,0.50)"/>
  <rect x="850" y="554" width="130" height="14" rx="7" fill="rgba(255,255,255,0.25)"/>
</svg>

