<svg width="1200" height="800" viewBox="0 0 1200 800" fill="none" xmlns="http://www.w3.org/2000/svg">
  <defs>
    <linearGradient id="bg2" x1="120" y1="120" x2="1080" y2="700" gradientUnits="userSpaceOnUse">
      <stop stop-color="#081630"/>
      <stop offset="0.6" stop-color="#15386D"/>
      <stop offset="1" stop-color="#13C6FF"/>
    </linearGradient>
    <radialGradient id="pulse" cx="0" cy="0" r="1" gradientUnits="userSpaceOnUse" gradientTransform="translate(520 360) rotate(115) scale(520 420)">
      <stop stop-color="#FFD36E" stop-opacity="0.45"/>
      <stop offset="1" stop-color="#FFD36E" stop-opacity="0"/>
    </radialGradient>
  </defs>
  <rect x="90" y="90" width="1020" height="620" rx="56" fill="url(#bg2)"/>
  <rect x="90" y="90" width="1020" height="620" rx="56" fill="url(#pulse)"/>

  <circle cx="600" cy="400" r="150" fill="rgba(255,255,255,0.10)"/>
  <circle cx="600" cy="400" r="210" stroke="rgba(255,255,255,0.12)" stroke-width="10"/>
  <circle cx="600" cy="400" r="270" stroke="rgba(255,255,255,0.08)" stroke-width="10"/>

  <rect x="260" y="220" width="680" height="360" rx="44" fill="rgba(255,255,255,0.10)" stroke="rgba(255,255,255,0.18)" stroke-width="2"/>
  <rect x="320" y="280" width="340" height="22" rx="11" fill="rgba(255,255,255,0.55)"/>
  <rect x="320" y="325" width="520" height="16" rx="8" fill="rgba(255,255,255,0.22)"/>
  <rect x="320" y="355" width="480" height="16" rx="8" fill="rgba(255,255,255,0.22)"/>
  <rect x="320" y="420" width="210" height="52" rx="26" fill="rgba(255,255,255,0.92)"/>
  <rect x="360" y="440" width="130" height="12" rx="6" fill="rgba(8,22,48,0.55)"/>

  <path d="M820 480c-22-58-76-88-146-82" stroke="rgba(255,211,110,0.95)" stroke-width="10" stroke-linecap="round"/>
  <circle cx="650" cy="400" r="10" fill="rgba(255,211,110,0.95)"/>
</svg>

