<svg width="1200" height="800" viewBox="0 0 1200 800" fill="none" xmlns="http://www.w3.org/2000/svg">
  <defs>
    <linearGradient id="g4" x1="120" y1="120" x2="1080" y2="700" gradientUnits="userSpaceOnUse">
      <stop stop-color="#081630"/>
      <stop offset="0.62" stop-color="#2F6CD3"/>
      <stop offset="1" stop-color="#FFB24A"/>
    </linearGradient>
    <radialGradient id="warm" cx="0" cy="0" r="1" gradientUnits="userSpaceOnUse" gradientTransform="translate(360 270) rotate(120) scale(520 360)">
      <stop stop-color="#FFB24A" stop-opacity="0.35"/>
      <stop offset="1" stop-color="#FFB24A" stop-opacity="0"/>
    </radialGradient>
  </defs>
  <rect x="90" y="90" width="1020" height="620" rx="44" fill="url(#g4)"/>
  <rect x="90" y="90" width="1020" height="620" rx="44" fill="url(#warm)"/>

  <rect x="150" y="160" width="900" height="120" rx="34" fill="rgba(255,255,255,0.10)" stroke="rgba(255,255,255,0.18)" stroke-width="2"/>
  <rect x="210" y="205" width="260" height="18" rx="9" fill="rgba(255,255,255,0.50)"/>
  <rect x="210" y="238" width="520" height="14" rx="7" fill="rgba(255,255,255,0.22)"/>

  <rect x="150" y="310" width="430" height="310" rx="36" fill="rgba(255,255,255,0.10)" stroke="rgba(255,255,255,0.18)" stroke-width="2"/>
  <rect x="620" y="310" width="430" height="310" rx="36" fill="rgba(255,255,255,0.10)" stroke="rgba(255,255,255,0.18)" stroke-width="2"/>

  <circle cx="280" cy="420" r="44" fill="rgba(255,255,255,0.14)"/>
  <path d="M280 466c-46 0-74 22-74 48v14h148v-14c0-26-28-48-74-48z" fill="rgba(255,255,255,0.18)"/>
  <rect x="360" y="390" width="170" height="16" rx="8" fill="rgba(255,255,255,0.42)"/>
  <rect x="360" y="420" width="200" height="12" rx="6" fill="rgba(255,255,255,0.20)"/>
  <rect x="360" y="446" width="150" height="12" rx="6" fill="rgba(255,255,255,0.20)"/>
  <rect x="360" y="486" width="140" height="36" rx="18" fill="rgba(255,178,74,0.75)"/>

  <circle cx="750" cy="420" r="44" fill="rgba(255,255,255,0.14)"/>
  <path d="M750 466c-46 0-74 22-74 48v14h148v-14c0-26-28-48-74-48z" fill="rgba(255,255,255,0.18)"/>
  <rect x="830" y="390" width="170" height="16" rx="8" fill="rgba(255,255,255,0.42)"/>
  <rect x="830" y="420" width="200" height="12" rx="6" fill="rgba(255,255,255,0.20)"/>
  <rect x="830" y="446" width="150" height="12" rx="6" fill="rgba(255,255,255,0.20)"/>
  <rect x="830" y="486" width="160" height="36" rx="18" fill="rgba(110,231,255,0.55)"/>

  <path d="M560 500c24-60 84-60 108 0" stroke="rgba(255,255,255,0.55)" stroke-width="10" stroke-linecap="round"/>
</svg>

